PathFileType	4	(X/Y/Z)	/Users/niels/Desktop/University/Third Semester/Perception and Action/Exam/Gymnastics Motion Tracking/Code for Gym Tracking/Analyzed Data/Webcam_Backflip/id8_3_pure_Sports2D/id8_3_pure_Sports2D_px_person00.trc
DataRate	CameraRate	NumFrames	NumMarkers	Units	OrigDataRate	OrigDataStartFrame	OrigNumFrames
29.81132075471698	29.81132075471698	12	22	m	29.81132075471698	19	159
Frame#	Time	Hip			RHip			RKnee			RAnkle			RBigToe			RSmallToe			RHeel			LHip			LKnee			LAnkle			LBigToe			LSmallToe			LHeel			Neck			Head			Nose			RShoulder			RElbow			RWrist			LShoulder			LElbow			LWrist		
		X1	Y1	Z1	X2	Y2	Z2	X3	Y3	Z3	X4	Y4	Z4	X5	Y5	Z5	X6	Y6	Z6	X7	Y7	Z7	X8	Y8	Z8	X9	Y9	Z9	X10	Y10	Z10	X11	Y11	Z11	X12	Y12	Z12	X13	Y13	Z13	X14	Y14	Z14	X15	Y15	Z15	X16	Y16	Z16	X17	Y17	Z17	X18	Y18	Z18	X19	Y19	Z19	X20	Y20	Z20	X21	Y21	Z21	X22	Y22	Z22
19	0.6373417721518987	0.9657315120100134	-0.5229144761837223	0.0	0.969149781205278	-0.5243588464359489	0.0	1.0188182821470706	-0.6036986667988817	0.0	0.985614994667969	-0.7042931833495346	0.0	0.9929349223926989	-0.7453679520943585	0.0	0.9874714405248272	-0.7455932535869068	0.0	0.9765364292533234	-0.7176877929945163	0.0	0.9649302377864547	-0.5209957644374947	0.0	1.0138584584972252	-0.6000893141698355	0.0	0.9858484313751283	-0.696842701947093	0.0	0.9959243621154582	-0.7277003199541168	0.0	0.9952183326824527	-0.7314373701660599	0.0	0.9730740367564142	-0.7054948463498446	0.0	0.915568840083392	-0.4116100700668448	0.0	0.8977182648211827	-0.3450209548012394	0.0	0.9183891431841681	-0.372765594091569	0.0	0.9134161036134505	-0.41591408904389376	0.0	0.8992223650194371	-0.34435987156205977	0.0	0.8821659809103434	-0.2918039621386093	0.0	0.9116721126711935	-0.4129596554599121	0.0	0.9014972235973996	-0.35040299214180864	0.0	0.883439955898332	-0.30624727803094054	0.0
20	0.6708860759493671	0.9656425670991711	-0.49174652077788583	0.0	0.9691394893952558	-0.49364705066138986	0.0	1.03282596224577	-0.5533252486532878	0.0	0.9991733895254941	-0.654312332599731	0.0	1.0044619085138047	-0.7005763331788479	0.0	1.0004478756612216	-0.6997033406881926	0.0	0.9903054804439245	-0.6669686770451293	0.0	0.9660128048822992	-0.48965483236779994	0.0	1.027855658981519	-0.5497963369144836	0.0	0.9996354219541412	-0.6470268317967877	0.0	1.0050989687614877	-0.6825987500330658	0.0	1.0057024564322647	-0.6876567059767095	0.0	0.9871954109975603	-0.6553434817194917	0.0	0.904023359526384	-0.38524641011459215	0.0	0.8811848238123223	-0.32000634533232847	0.0	0.9035701174462726	-0.3462842038122738	0.0	0.902650302555813	-0.3900273894682337	0.0	0.8781016488043155	-0.31930542060171563	0.0	0.8529778642683101	-0.26526534303763494	0.0	0.9013597607967891	-0.38733840345629633	0.0	0.88076183415727	-0.3254416356760425	0.0	0.855679140838533	-0.28707260717449745	0.0
21	0.7044303797468354	0.9648293263106661	-0.46493551898581964	0.0	0.9681412218646076	-0.46741907536693267	0.0	1.04387976182962	-0.49926849262247913	0.0	1.0152330632918933	-0.5996307372045927	0.0	1.0208616739704013	-0.6471885698317013	0.0	1.018251777146379	-0.6459153154385106	0.0	1.0073370632517826	-0.6119497701139843	0.0	0.9660074478811044	-0.46270173404427173	0.0	1.039026365215957	-0.4960801319508176	0.0	1.0156250890041922	-0.5929859260115261	0.0	1.017946030931063	-0.6304757063031244	0.0	1.020153149218476	-0.6365007114764252	0.0	1.0050569694814298	-0.602073029728459	0.0	0.8923253273248561	-0.36414742688391505	0.0	0.864044095653874	-0.30127369084666955	0.0	0.8889808394897508	-0.32487951398445536	0.0	0.8924699606589437	-0.36952329827856323	0.0	0.8663724396822243	-0.3014176662588383	0.0	0.839129813442736	-0.24555328089358008	0.0	0.8911833487677145	-0.36700533641344724	0.0	0.8678796485161104	-0.30686954463377586	0.0	0.8417585678331919	-0.2740272680316114	0.0
22	0.7379746835443037	0.964518750787548	-0.4429937795884807	0.0	0.967684550560926	-0.44601422462304063	0.0	1.0478796932130088	-0.44432235905396256	0.0	1.0319576295405792	-0.5424275536934003	0.0	1.0409228874936922	-0.5858408299322999	0.0	1.039547219425561	-0.5852325453490308	0.0	1.0260486730521818	-0.5549137040420081	0.0	0.9657386074692976	-0.4405459297699562	0.0	1.0430749591029573	-0.44200986564832057	0.0	1.0318449442796247	-0.5365599839702445	0.0	1.0326115106800393	-0.5715754773612131	0.0	1.0377333516777105	-0.5780505152423613	0.0	1.024667117752305	-0.5474731238888774	0.0	0.8815242753008963	-0.3495941937022085	0.0	0.846916459517698	-0.2907742860197644	0.0	0.8750863559250022	-0.30984654067646494	0.0	0.8837134980485151	-0.3551518534024753	0.0	0.8648037889127299	-0.2904949078784515	0.0	0.8406439579981686	-0.23236935972680864	0.0	0.881934375282315	-0.35299838779226966	0.0	0.8639270862963945	-0.29472452835205387	0.0	0.8415693827984475	-0.2639408386010979	0.0
23	0.7715189873417722	0.9657510402184664	-0.4250096185637201	0.0	0.9689972841270821	-0.4282486276924995	0.0	1.0421537152015916	-0.392105884513927	0.0	1.046542466846774	-0.4844787120461778	0.0	1.0611258088908035	-0.5181562791840266	0.0	1.0608457831111224	-0.5192335619276707	0.0	1.0436070468918486	-0.4973663978369598	0.0	0.9661825933502122	-0.42217595581490713	0.0	1.0373554781380383	-0.39128731259602184	0.0	1.0455690586238935	-0.4794331072933453	0.0	1.045020528336986	-0.5068492871419218	0.0	1.0555281644408203	-0.5133957210437892	0.0	1.042798281384836	-0.4923483862375015	0.0	0.8729902366335704	-0.34208927463757777	0.0	0.8314235162269296	-0.28985736437032616	0.0	0.8628306826156859	-0.3022342483090301	0.0	0.8774603568144982	-0.3469703785329319	0.0	0.8719866114480497	-0.2862003643936077	0.0	0.8542448941671823	-0.22616770542199463	0.0	0.8748522309330172	-0.3456325118674999	0.0	0.8679531261525153	-0.28903741850394693	0.0	0.85221267058655	-0.25545868819772294	0.0
24	0.8050632911392405	0.9688742787741801	-0.4090786082403952	0.0	0.9723910755808189	-0.41204881475638305	0.0	1.0263321500379063	-0.34655920383400307	0.0	1.0556597908410004	-0.4274352092596238	0.0	1.076180987963945	-0.4471885504190819	0.0	1.0768927753070852	-0.4505112561387934	0.0	1.0563702164987538	-0.44037665933050074	0.0	0.968010457174491	-0.4058599717876334	0.0	1.0219166855148554	-0.34771542637778274	0.0	1.0537114766649578	-0.4235601956500767	0.0	1.050405709902892	-0.4390660352229594	0.0	1.0688695164551838	-0.445550846328504	0.0	1.0558450956766627	-0.43736577010933636	0.0	0.8679224551938173	-0.34153374444129164	0.0	0.8196539165899692	-0.29921969202527676	0.0	0.8532778076559657	-0.30303140194182154	0.0	0.8746669804024874	-0.3445724775978085	0.0	0.8848350265101161	-0.2875850995173672	0.0	0.8741564654881434	-0.22689468827602297	0.0	0.8712291249476116	-0.34476331024373896	0.0	0.877429847557758	-0.2894378694243569	0.0	0.8688690135178042	-0.24990404514902106	0.0
25	0.8386075949367088	0.9733446708361454	-0.3931810407625887	0.0	0.9771842359233741	-0.3954445624273746	0.0	1.0023868532177207	-0.3110866084692636	0.0	1.05635423197331	-0.3734392562500589	0.0	1.0809725580216647	-0.3775946195279412	0.0	1.0825330248644804	-0.38305802795116367	0.0	1.060827580729294	-0.38542486271315995	0.0	0.9712844707659476	-0.3899573708874091	0.0	0.9994334013078371	-0.3143190200983584	0.0	1.0536260560944466	-0.3714747696123262	0.0	1.0464622481046015	-0.3729723658537352	0.0	1.0731366724282303	-0.37949227346374675	0.0	1.0607328097806465	-0.38386371884999043	0.0	0.8671491308924835	-0.3473907012679991	0.0	0.8137548144465151	-0.3186254674966009	0.0	0.847351090347916	-0.31290163033040047	0.0	0.8758965840384083	-0.3473080242431243	0.0	0.8997155547949558	-0.2931397607656018	0.0	0.8938831758938858	-0.23365384811896442	0.0	0.8720673563942297	-0.3499007261371771	0.0	0.8893976459129392	-0.2949868770234188	0.0	0.8863134502514591	-0.24945764828779401	0.0
26	0.8721518987341772	0.9779366167462819	-0.37610102486343877	0.0	0.9819473056483576	-0.3774280051155383	0.0	0.9738752536368708	-0.2879264122027933	0.0	1.0470363429969396	-0.325373661211497	0.0	1.072468580739965	-0.3150986131517423	0.0	1.0746548551817934	-0.32196253811234576	0.0	1.054715897824121	-0.33504475830321834	0.0	0.9754061261675913	-0.37344648183008633	0.0	0.9741664558768461	-0.2927496019546978	0.0	1.0439663650023725	-0.3262174175203762	0.0	1.0347791167845029	-0.3145453353119284	0.0	1.0654872503257653	-0.3211313798705812	0.0	1.0556020136992417	-0.3341757579516172	0.0	0.8713062157497354	-0.358642263979854	0.0	0.8159494141325468	-0.3464062061854083	0.0	0.8461919223444191	-0.3315109982647695	0.0	0.8813223498226636	-0.35432404556069674	0.0	0.9135364548723102	-0.30111378063163646	0.0	0.908438345016884	-0.24525841609320997	0.0	0.8780001460368627	-0.36007182411049926	0.0	0.9015827469299582	-0.30417801086680396	0.0	0.9007610819358917	-0.25507584323625	0.0
27	0.9056962025316455	0.9811078131152989	-0.3579527825620417	0.0	0.9848378892447035	-0.358360182201549	0.0	0.9447680740327036	-0.2780158730411175	0.0	1.0279076793532884	-0.28653513271670455	0.0	1.0503132356536484	-0.26523801229863975	0.0	1.0528166156946592	-0.2724191921805048	0.0	1.0376742485740533	-0.292677981400153	0.0	0.979215004530555	-0.35625888397962985	0.0	0.9504006684145982	-0.28333106079563075	0.0	1.0250788010679368	-0.2909166364565402	0.0	1.0175557737504335	-0.26968527477512144	0.0	1.045419631430545	-0.2758233181520972	0.0	1.0402363749290369	-0.2914172330381431	0.0	0.880915471941894	-0.3735961857886036	0.0	0.8282694689400016	-0.3791004614220413	0.0	0.8514729054941461	-0.3569427138961544	0.0	0.890814073192065	-0.3643783723614243	0.0	0.9242488481671429	-0.30983637772032524	0.0	0.9156549802601495	-0.26065660932871193	0.0	0.8892743407058078	-0.37362063035090626	0.0	0.9128927523391456	-0.31515600032058777	0.0	0.9110480947665678	-0.2663969354306626	0.0
28	0.9392405063291138	0.9813460175483663	-0.34009989812995683	0.0	0.984134686857066	-0.339822960870607	0.0	0.9185475663391521	-0.2811106507939509	0.0	1.0006311001733348	-0.2600087340161359	0.0	1.0162838170510806	-0.23222304493827836	0.0	1.018783616818134	-0.2387159092663335	0.0	1.0110926915883354	-0.26186460252118154	0.0	0.9811712889392162	-0.3394374421221479	0.0	0.9310127155526986	-0.2854123701610917	0.0	0.9986930533792625	-0.26808750086554844	0.0	0.9939725525487405	-0.24246367854899967	0.0	1.0143295977594171	-0.24721050301336506	0.0	1.015928271323513	-0.2590184720841139	0.0	0.8960348595218645	-0.3898465288250313	0.0	0.8516834305851839	-0.4118228998267464	0.0	0.8648154361352203	-0.385698928139348	0.0	0.9039056720267268	-0.37576238545247564	0.0	0.9308904000082941	-0.31826953639241895	0.0	0.9161013022307746	-0.2790664804331599	0.0	0.9054853846738877	-0.38823500367613634	0.0	0.9230965658210318	-0.32632105524632693	0.0	0.9183651660536424	-0.2825327265513934	0.0
29	0.9727848101265822	0.9776090573118649	-0.32453606819627195	0.0	0.9788879490001339	-0.3239785646830552	0.0	0.8979828675748387	-0.295793781593899	0.0	0.967761009145221	-0.24813753826945273	0.0	0.9737104103306818	-0.2187413786822754	0.0	0.9760192035965775	-0.2238076861359803	0.0	0.9775173747723638	-0.24547958866348063	0.0	0.9797311123979444	-0.3247956229619893	0.0	0.91699718912542	-0.297492083060567	0.0	0.9673203905580057	-0.2589496984972023	0.0	0.9622108352149359	-0.2340867389757792	0.0	0.9749242371329458	-0.23678900303945166	0.0	0.9847986666382732	-0.2403465176336725	0.0	0.9157734320721246	-0.404523032080033	0.0	0.8851992362027006	-0.4394081366655226	0.0	0.8867063636505416	-0.41331879948951	0.0	0.9197584456678949	-0.38654512279288844	0.0	0.9335306784425799	-0.32646124473802557	0.0	0.9122117166161166	-0.2999991440356626	0.0	0.9252462367763894	-0.40122787186443	0.0	0.9322496779154573	-0.33691551131121206	0.0	0.9248657228901438	-0.3025349802441415	0.0
30	1.0063291139240507	0.969711471566907	-0.31320001642552864	0.0	0.969230276783493	-0.31288606298557703	0.0	0.885063827907984	-0.319540057092188	0.0	0.9323669206976167	-0.2524122798045424	0.0	0.9273151207019512	-0.22651818841960525	0.0	0.9293844183214723	-0.22963787875423355	0.0	0.9401337646046966	-0.24555804617680269	0.0	0.9739132777953555	-0.31424569148467274	0.0	0.9081053135026972	-0.3173150232754771	0.0	0.9338682185853454	-0.26360787408172953	0.0	0.9236527007899978	-0.24398417226216124	0.0	0.931180011313881	-0.24452304430505223	0.0	0.9493377797934562	-0.2383522394849303	0.0	0.9382324233163041	-0.4149514719774724	0.0	0.9256111649952955	-0.4578077898700961	0.0	0.915772528891349	-0.4354658900750659	0.0	0.937236174947105	-0.3950085516789219	0.0	0.9331881401386376	-0.33538069348463967	0.0	0.9073197830389998	-0.3231950863800051	0.0	0.9463510570547115	-0.4100830310657665	0.0	0.9404917961771107	-0.34711411916943385	0.0	0.9323779714209958	-0.3254862148653569	0.0
